<svg width="24.000000" height="24.000000" viewBox="0 0 24 24" fill="none" xmlns="http://www.w3.org/2000/svg" xmlns:xlink="http://www.w3.org/1999/xlink">
	<desc>
			Created with Pixso.
	</desc>
	<defs>
		<clipPath id="clip74_17">
			<rect rx="-0.500000" width="23.000000" height="23.000000" transform="translate(0.500000 0.500000)" fill="white" fill-opacity="0"/>
		</clipPath>
	</defs>
	<rect rx="-0.500000" width="23.000000" height="23.000000" transform="translate(0.500000 0.500000)" fill="#FFFFFF" fill-opacity="0"/>
	<g clip-path="url(#clip74_17)">
		<path d="M21.07 16.63C20.58 17.73 20.34 18.22 19.7 19.19C18.81 20.55 17.55 22.24 15.99 22.25C14.61 22.26 14.26 21.35 12.38 21.36C10.5 21.37 10.11 22.27 8.73 22.25C7.17 22.24 5.98 20.71 5.09 19.36C2.6 15.57 2.33 11.11 3.87 8.75C4.96 7.07 6.69 6.08 8.31 6.08C9.96 6.08 11 6.99 12.36 6.99C13.68 6.99 14.49 6.08 16.4 6.08C17.84 6.08 19.37 6.87 20.45 8.22C16.89 10.18 17.47 15.27 21.07 16.63ZM14.95 4.56C15.64 3.67 16.17 2.42 15.98 1.13C14.85 1.21 13.52 1.93 12.75 2.87C12.05 3.72 11.47 4.99 11.69 6.22C12.93 6.25 14.21 5.52 14.95 4.56Z" fill="#F2F2F2" fill-opacity="0.400000" fill-rule="nonzero"/>
	</g>
</svg>
