<svg width="24.000000" height="24.000000" viewBox="0 0 24 24" fill="none" xmlns="http://www.w3.org/2000/svg" xmlns:xlink="http://www.w3.org/1999/xlink">
	<desc>
			Created with Pixso.
	</desc>
	<defs>
		<clipPath id="clip74_6">
			<rect rx="-0.500000" width="23.000000" height="23.000000" transform="translate(0.500000 0.500000)" fill="white" fill-opacity="0"/>
		</clipPath>
	</defs>
	<rect rx="-0.500000" width="23.000000" height="23.000000" transform="translate(0.500000 0.500000)" fill="#FFFFFF" fill-opacity="0"/>
	<g clip-path="url(#clip74_6)">
		<path d="M5.93 21.66L15.13 16.46L13.15 14.27L5.93 21.66ZM2.57 2.54C2.46 2.73 2.39 2.95 2.39 3.19L2.39 21.34C2.39 21.68 2.52 21.97 2.71 22.19L11.86 12.85L2.57 2.54ZM20.97 11.37L17.76 9.56L14.5 12.9L16.84 15.5L20.97 13.16C21.14 13.08 21.29 12.95 21.4 12.8C21.51 12.64 21.57 12.46 21.6 12.27C21.57 12.08 21.51 11.9 21.4 11.74C21.29 11.58 21.14 11.46 20.97 11.37ZM16.03 8.59L4.97 2.34L13.21 11.47L16.03 8.59Z" fill="#F2F2F2" fill-opacity="0.400000" fill-rule="nonzero"/>
	</g>
</svg>
